<?xml version="1.0" encoding="UTF-8"?>
<svg id="Capa_1" xmlns="http://www.w3.org/2000/svg" version="1.1" viewBox="0 0 1200 649.7">
  <!-- Generator: Adobe Illustrator 29.1.0, SVG Export Plug-In . SVG Version: 2.1.0 Build 142)  -->
  <defs>
    <style>
      .st0 {
        fill: #1e1e1c;
      }
    </style>
  </defs>
  <g>
    <path class="st0" d="M-1775.04,331.86h76.46c20.92,0,37.94-17.02,37.94-37.94s-17.02-37.94-37.94-37.94h-397.3c-20.92,0-37.94,17.02-37.94,37.94s17.02,37.94,37.94,37.94h116.83l-149.28,26.78,2.57,14.3,157.3-28.21-79.19,31.07,5.31,13.52,105.71-41.47-41.87,34.7,9.27,11.18,64.68-53.62v42.44h14.65v-42.44l64.68,53.62,9.27-11.18-41.86-34.7,105.71,41.47,5.31-13.52-79.19-31.07,157.3,28.21,2.57-14.3-149.28-26.78h40.37ZM-2042.84,293.92c0-12.91,10.5-23.41,23.41-23.41h46.9c-5.08,6.45-8.12,14.58-8.12,23.41s3.04,16.96,8.12,23.41h-46.9c-12.91,0-23.41-10.5-23.41-23.41M-1751.63,293.92c0,12.91-10.5,23.41-23.41,23.41h-46.9c5.08-6.45,8.12-14.58,8.12-23.41s-3.04-16.96-8.12-23.41h46.9c12.91,0,23.41,10.5,23.41,23.41M-1966.12,293.92c0-12.91,10.5-23.41,23.41-23.41h38.15v46.83h-38.15c-12.91,0-23.41-10.5-23.41-23.41M-1828.34,293.92c0,12.91-10.5,23.41-23.42,23.41h-38.15v-46.83h38.15c12.91,0,23.42,10.5,23.42,23.41M-1675.17,293.92c0,12.91-10.5,23.41-23.42,23.41h-46.64c5.08-6.45,8.12-14.58,8.12-23.41s-3.04-16.96-8.12-23.41h46.64c12.91,0,23.42,10.5,23.42,23.41M-2119.3,293.92c0-12.91,10.5-23.41,23.41-23.41h46.64c-5.08,6.45-8.12,14.58-8.12,23.41s3.04,16.96,8.12,23.41h-46.64c-12.91,0-23.41-10.5-23.41-23.41"/>
    <path class="st0" d="M-1614.61,314.3c-3.66-2.09-6.59-4.93-8.77-8.5-2.19-3.57-3.28-7.48-3.28-11.71s1.06-8.15,3.17-11.74c2.12-3.6,4.99-6.46,8.64-8.6,3.64-2.14,7.62-3.21,11.95-3.21s8.33,1.04,12.01,3.11c3.69,2.07,6.61,4.91,8.77,8.5,2.16,3.59,3.24,7.51,3.24,11.74s-1.06,8.15-3.17,11.74c-2.11,3.6-4.99,6.46-8.64,8.6-3.64,2.14-7.62,3.21-11.95,3.21s-8.32-1.05-11.98-3.14M-1592.33,313.66c3.32-2.12,6.01-4.94,8.06-8.47,2.05-3.53,3.07-7.29,3.07-11.3s-1.06-7.77-3.17-11.3c-2.12-3.53-4.85-6.32-8.19-8.4-3.34-2.07-6.79-3.11-10.34-3.11s-6.99,1.07-10.31,3.21c-3.32,2.14-6.01,4.97-8.06,8.5-2.05,3.53-3.07,7.29-3.07,11.3s1.06,7.75,3.17,11.23c2.12,3.48,4.85,6.27,8.19,8.36,3.34,2.09,6.79,3.14,10.34,3.14s6.99-1.06,10.31-3.17M-1594.85,307.72c-.5-.61-.91-1.56-1.23-2.83l-1.77-7.1c-.46-1.82-1.16-3.28-2.12-4.37-.96-1.09-2.44-1.64-4.44-1.64h-3.21v13.79c0,.45.15.84.44,1.16.3.32.69.52,1.2.61l1.77.2v.68h-8.74v-.68l1.78-.2c.5-.09.9-.29,1.19-.61.3-.32.44-.71.44-1.16v-25.46c0-.45-.16-.85-.48-1.2-.32-.34-.71-.53-1.16-.58l-1.64-.14v-.68h10.92c1.82,0,3.37.35,4.64,1.06,1.27.71,2.23,1.59,2.87,2.66.64,1.07.96,2.15.96,3.24,0,1.68-.63,3.22-1.88,4.61-1.25,1.39-3.04,2.24-5.36,2.56,2.41,1.09,3.98,3.1,4.71,6.01l1.84,6.96c.23.73.46,1.33.72,1.81.25.48.6.72,1.06.72.68,0,1.21-.46,1.57-1.4.36-.93.57-2.08.61-3.45h.68c-.09,1.78-.41,3.28-.96,4.51-.55,1.23-1.32,1.84-2.32,1.84-.91,0-1.62-.31-2.11-.92M-1597.38,289.22c1.27-1.16,1.91-2.74,1.91-4.74,0-1.87-.65-3.35-1.95-4.47-1.3-1.11-3.06-1.67-5.29-1.67h-4.91v12.63h5.19c2.09,0,3.78-.58,5.05-1.74"/>
  </g>
  <g>
    <path class="st0" d="M-1026.27,354.37c0-8.54-6.97-15.52-15.55-15.52h-83.79v54.8h6.75v-22.74l3.43.88,82.25,21.1,1.68-6.57-42.9-11.02-20.99-5.37h53.56c8.58,0,15.55-6.97,15.55-15.55M-1118.86,363.13v-17.52h77.03c4.82,0,8.76,3.94,8.76,8.76s-3.94,8.76-8.76,8.76h-77.03Z"/>
    <path class="st0" d="M-133.85,354.37c0-8.54-6.97-15.52-15.52-15.52h-83.82v54.8h6.79v-22.74l3.4.88,82.29,21.1,1.68-6.57-42.9-11.02-21.03-5.37h53.6c8.54,0,15.52-6.97,15.52-15.55M-226.39,363.13v-17.52h77.03c4.82,0,8.76,3.94,8.76,8.76s-3.94,8.76-8.76,8.76h-77.03Z"/>
    <polygon class="st0" points="-1005.28 345.53 -1005.28 359.63 -965.08 359.63 -965.08 366.42 -1005.28 366.42 -1005.28 386.93 -918.82 386.93 -918.82 393.72 -1012.03 393.72 -1012.03 338.78 -918.82 338.78 -918.82 345.53 -1005.28 345.53"/>
    <polygon class="st0" points="-669.54 345.53 -669.54 359.63 -629.38 359.63 -629.38 366.42 -669.54 366.42 -669.54 386.93 -583.09 386.93 -583.09 393.72 -676.33 393.72 -676.33 338.78 -583.09 338.78 -583.09 345.53 -669.54 345.53"/>
    <polygon class="st0" points="-896.74 345.53 -896.74 359.63 -856.58 359.63 -856.58 366.42 -896.74 366.42 -896.74 393.72 -903.53 393.72 -903.53 338.78 -804.19 338.78 -804.19 345.53 -896.74 345.53"/>
    <polygon class="st0" points="-691.15 386.93 -691.15 393.72 -790.49 393.72 -790.49 338.78 -783.7 338.78 -783.7 386.93 -691.15 386.93"/>
    <polygon class="st0" points="-356.88 338.78 -356.88 345.53 -403.32 345.53 -403.32 393.73 -410.11 393.73 -410.11 345.53 -456.55 345.53 -456.55 338.78 -356.88 338.78"/>
    <path class="st0" d="M-248.96,358.09c-2.41-7.74-8.11-13.98-15.55-17.16-3.4-1.42-7.01-2.15-10.7-2.15h-44.4c-15.15,0-27.49,12.3-27.49,27.45s12.34,27.49,27.49,27.49h44.4c15.15,0,27.49-12.34,27.49-27.49,0-2.77-.44-5.51-1.24-8.14M-275.21,386.93h-44.4c-11.39,0-20.7-9.27-20.7-20.7s9.31-20.7,20.7-20.7h44.4c11.43,0,20.7,9.31,20.7,20.7s-9.27,20.7-20.7,20.7"/>
    <path class="st0" d="M-563.59,366.23c0,11.43,9.27,20.7,20.7,20.7h71.85v6.79h-71.85c-15.15,0-27.49-12.34-27.49-27.49s12.34-27.46,27.49-27.46h71.85v6.75h-71.85c-11.43,0-20.7,9.31-20.7,20.7"/>
    <path class="st0" d="M-927.91,255.98h-83.83v54.95h6.79v-23.8h77.03c8.54,0,15.52-7.01,15.52-15.59s-6.97-15.55-15.52-15.55M-927.91,280.33h-77.03v-17.6h77.03c4.82,0,8.76,3.94,8.76,8.8s-3.94,8.8-8.76,8.8"/>
    <path class="st0" d="M-831.17,255.98h-44.4c-15.15,0-27.49,12.3-27.49,27.45s12.34,27.49,27.49,27.49h44.4c9.13,0,17.63-4.53,22.78-12.12,2.01-3,3.4-6.32,4.13-9.82.37-1.83.55-3.69.55-5.55,0-15.15-12.3-27.45-27.46-27.45M-831.17,304.13h-44.4c-11.43,0-20.7-9.27-20.7-20.7s9.27-20.7,20.7-20.7h44.4c11.39,0,20.7,9.31,20.7,20.7s-9.31,20.7-20.7,20.7"/>
    <path class="st0" d="M-1118.86,283.43c0,11.43,9.31,20.7,20.7,20.7h65.09v-17.09h-40.16v-6.79h46.95v30.67h-71.89c-15.15,0-27.46-12.34-27.46-27.49s12.3-27.46,27.46-27.46h71.89v6.75h-71.89c-11.39,0-20.7,9.31-20.7,20.7"/>
    <rect class="st0" x="-795.94" y="304.24" width="6.79" height="6.68"/>
  </g>
  <g>
    <path class="st0" d="M1515.13,422.75c0,5.5,4.46,10.01,10.01,10.01h97.25c13.38,0,24.22,10.84,24.22,24.22s-10.84,24.22-24.22,24.22h-116.91v-9.65h116.91c8.04,0,14.63-6.53,14.63-14.58s-6.59-14.62-14.63-14.62h-97.25c-10.84,0-19.66-8.76-19.66-19.61s8.82-19.66,19.66-19.66h121.47v9.65h-121.47c-5.55,0-10.01,4.46-10.01,10.01"/>
    <path class="st0" d="M2267.56,403.09h-63.02c-21.52,0-39.06,17.53-39.06,39.06s17.53,39.06,39.06,39.06h63.02c21.52,0,39.06-17.53,39.06-39.06s-17.53-39.06-39.06-39.06M2267.56,471.55h-63.02c-16.24,0-29.46-13.18-29.46-29.41s13.23-29.41,29.46-29.41h63.02c16.23,0,29.41,13.17,29.41,29.41s-13.17,29.41-29.41,29.41"/>
    <polygon class="st0" points="1362.44 412.74 1362.44 432.76 1419.49 432.76 1419.49 442.35 1362.44 442.35 1362.44 471.55 1485.26 471.55 1485.26 481.2 1352.84 481.2 1352.84 403.09 1485.26 403.09 1485.26 412.74 1362.44 412.74"/>
    <rect class="st0" x="2137.27" y="403.09" width="9.65" height="78.11"/>
    <polygon class="st0" points="1805.27 403.09 1805.27 412.74 1739.3 412.74 1739.3 481.2 1729.7 481.2 1729.7 412.74 1663.68 412.74 1663.68 403.09 1805.27 403.09"/>
    <path class="st0" d="M1962.32,403.09v39.06c0,12.29-5.91,24.06-15.82,31.38-6.79,5.03-14.83,7.68-23.24,7.68h-63.02c-8.46,0-16.44-2.64-23.24-7.68-9.91-7.32-15.82-19.09-15.82-31.38v-39.06h9.6v39.06c0,16.23,13.22,29.41,29.46,29.41h63.02c16.24,0,29.41-13.18,29.41-29.41v-39.06h9.65Z"/>
    <polygon class="st0" points="1523.85 295.78 1523.85 315.8 1580.9 315.8 1580.9 325.45 1523.85 325.45 1523.85 354.59 1646.61 354.59 1646.61 364.24 1514.2 364.24 1514.2 286.13 1646.61 286.13 1646.61 295.78 1523.85 295.78"/>
    <path class="st0" d="M1454.91,286.13h-102.07v78.11h102.07c21.52,0,39.06-17.53,39.06-39.06s-17.53-39.06-39.06-39.06M1454.91,354.59h-92.48v-58.82h92.48c16.24,0,29.41,13.17,29.41,29.41s-13.17,29.41-29.41,29.41"/>
    <path class="st0" d="M2081.15,403.09h-102.07v78.11h102.07c21.52,0,39.06-17.53,39.06-39.06s-17.53-39.06-39.06-39.06M2081.15,471.55h-92.43v-58.82h92.43c16.23,0,29.41,13.17,29.41,29.41s-13.18,29.41-29.41,29.41"/>
    <polygon class="st0" points="1580.74 168.55 1502.58 246.66 1488.58 246.66 1567.15 168.55 1580.74 168.55"/>
    <polygon class="st0" points="1775.03 168.55 1696.87 246.66 1682.81 246.66 1761.39 168.55 1775.03 168.55"/>
    <polygon class="st0" points="1918.24 168.5 1908.54 178.15 1859.99 178.15 1858.85 179.29 1791.42 246.66 1777.42 246.66 1839.61 184.78 1846.3 178.15 1791.01 178.15 1800.55 168.55 1805.69 168.55 1918.24 168.5"/>
    <polygon class="st0" points="1534.32 168.55 1456.16 246.66 1436.4 246.66 1358.24 168.55 1371.82 168.55 1439.67 235.93 1440.81 237.07 1451.75 237.07 1452.89 235.93 1520.73 168.55 1534.32 168.55"/>
    <path class="st0" d="M2031.83,235.77l-50.98-50.93-16.34-16.34h-19.76l-3.01,3.01-13.28,13.33-51.04,50.93-10.89,10.89h13.69l12.19-12.14,5.24-5.19,1.14-1.14h111.67l1.14,1.14,5.86,5.81,11.62,11.51h13.64l-10.89-10.89ZM1908.8,218.55l6.38-6.59,2.03-2.07,30.81-30.65,1.14-1.09h10.94l1.14,1.09,30.76,30.6,2.07,2.13,6.38,6.59h-91.65Z"/>
    <path class="st0" d="M1600.71,188.16c0,3.42,1.71,6.43,4.36,8.14.47.36.99.67,1.56.93.21.1.42.21.67.26.42.21.93.31,1.4.41.73.16,1.45.26,2.23.26h40.82c9.96,0,18.47,5.71,22.35,14.89,1.24,3.06,1.92,6.28,1.92,9.54,0,4.41-1.24,10.84-7,16.75-4.57,4.67-10.69,7.21-17.27,7.21l-116.08.05,9.65-9.59h106.79c.52,0,1.09-.05,1.66-.1.52-.05,1.04-.16,1.61-.31,6.53-1.45,11.36-7.31,11.36-14.21s-4.62-12.5-10.89-14.11c-.62-.16-1.19-.26-1.82-.37-.62-.1-1.3-.15-1.92-.15h-40.98c-7.31,0-13.59-3.63-17.11-9.96-1.66-3.01-2.54-6.38-2.54-9.8,0-5.08,1.92-9.8,5.65-13.59,3.68-3.79,8.71-5.86,14-5.86h121.11l-9.59,9.6h-111.93c-.62,0-1.3.1-1.92.2-4.62.88-8.09,4.93-8.09,9.8"/>
  </g>
  <g>
    <path class="st0" d="M977.51,295.33c-.96,2.44-2.33,3.66-4.11,3.66-1.19,0-2.11-.63-2.77-1.88-.66-1.25-1.29-2.82-1.88-4.73l-4.82-18.21c-1.9-7.62-6.01-12.86-12.32-15.72,6.07-.83,10.74-3.06,14.02-6.7,3.27-3.63,4.91-7.65,4.91-12.05,0-2.86-.83-5.69-2.5-8.49-1.67-2.8-4.17-5.12-7.5-6.96-3.33-1.85-7.39-2.77-12.15-2.77h-28.57v1.78l4.28.35c1.19.12,2.2.63,3.04,1.52.83.9,1.25,1.94,1.25,3.13v66.62c0,1.19-.39,2.2-1.16,3.03-.77.84-1.81,1.37-3.13,1.61l-4.64.54v1.78h22.87v-1.78l-4.65-.54c-1.31-.24-2.35-.77-3.12-1.61-.78-.83-1.16-1.84-1.16-3.03v-36.08h8.39c5.24,0,9.11,1.43,11.61,4.28,2.5,2.86,4.35,6.67,5.54,11.43l4.64,18.58c.83,3.33,1.91,5.81,3.22,7.41,1.31,1.6,3.15,2.41,5.54,2.41,2.62,0,4.64-1.61,6.08-4.82,1.43-3.22,2.26-7.15,2.5-11.79h-1.78c-.12,3.58-.66,6.58-1.61,9.02M933.39,256.66v-33.05h12.86c5.84,0,10.45,1.46,13.85,4.37,3.39,2.92,5.09,6.82,5.09,11.7,0,5.24-1.67,9.37-5,12.41-3.33,3.03-7.74,4.56-13.22,4.56h-13.57Z"/>
    <path class="st0" d="M1000.1,233.62c-5.65-9.4-13.3-16.81-22.95-22.24-9.64-5.41-20.13-8.12-31.43-8.12s-21.74,2.8-31.26,8.39c-9.53,5.6-17.06,13.09-22.59,22.51-5.54,9.41-8.31,19.64-8.31,30.72s2.86,21.29,8.58,30.63c5.71,9.35,13.36,16.76,22.95,22.24,9.58,5.47,20.04,8.21,31.35,8.21s21.73-2.8,31.26-8.39c9.52-5.59,17.06-13.09,22.59-22.5,5.54-9.41,8.31-19.66,8.31-30.72s-2.83-21.32-8.49-30.72M994.48,293.91c-5.36,9.22-12.38,16.61-21.08,22.14-8.69,5.54-17.68,8.31-26.97,8.31s-18.31-2.74-27.06-8.22c-8.75-5.47-15.89-12.77-21.44-21.88-5.54-9.11-8.3-18.9-8.3-29.38s2.68-20.33,8.04-29.56c5.36-9.23,12.38-16.64,21.07-22.23,8.69-5.6,17.69-8.4,26.98-8.4s18.3,2.71,27.05,8.13c8.75,5.42,15.9,12.74,21.44,21.97,5.54,9.23,8.31,19.08,8.31,29.56s-2.68,20.34-8.04,29.56"/>
    <path class="st0" d="M758.62,323.68c21.09-12.87,34.19-36.22,34.19-60.92,0-26.59-14.62-50.79-38.16-63.17-23.53-12.37-51.76-10.71-73.69,4.37l-53.3,36.66-344.53-70.55h0c-22.55-4.62-45.77,1.07-63.62,15.65-17.86,14.57-28.1,36.15-28.1,59.19,0,36.12,25.68,67.59,61.06,74.84l267.09,54.69-311.47,58.34,7.93,42.31,394.13-73.81v79.94h43.96v-81.86l136.3,14.39,4.52-42.82-96.91-10.23,60.6-37ZM705.37,239.43c8.82-6.07,19.74-6.72,29.25-1.73,9.48,4.98,15.13,14.35,15.13,25.06,0,9.8-5.2,19.07-13.57,24.18l-82.09,50.11v-62.35l51.28-35.27ZM234.46,244.9c0-10.06,4.46-19.47,12.26-25.83,6.02-4.91,13.43-7.51,21.03-7.51,2.24,0,4.5.23,6.73.68l335.65,68.73v68.06l-349.03-71.47c-15.44-3.16-26.65-16.9-26.65-32.66"/>
  </g>
</svg>